<svg width="215" height="215" viewBox="0 0 215 215" fill="none" xmlns="http://www.w3.org/2000/svg">
<g clip-path="url(#clip0_856_1495)">
<path d="M196.087 106.878C196.087 155.735 156.48 195.342 107.623 195.342C58.7661 195.342 19.1597 155.735 19.1597 106.878C19.1597 58.0213 58.7661 18.4148 107.623 18.4148C156.48 18.4148 196.087 58.0213 196.087 106.878Z" fill="#C7D5E0"/>
<path d="M85.1243 188.542C130.211 134.631 110.007 52.4521 45.0629 25.5921C-0.0238882 79.5034 20.1798 161.682 85.1243 188.542Z" fill="#E1E692"/>
<path d="M96.781 194.623C125.524 130.489 83.7527 56.8915 13.9534 48.6872C-14.7897 112.821 26.9817 186.418 96.781 194.623Z" fill="#E1E692"/>
<path fill-rule="evenodd" clip-rule="evenodd" d="M124.959 193.708H120.744C90.6499 193.708 66.2539 169.481 66.2539 139.595C66.2539 129.514 70.1075 119.091 72.734 111.988C73.0994 111 73.4411 110.076 73.7454 109.226C74.8658 106.095 73.5384 102.976 70.8583 101.009L61.5483 94.1737L77.6255 89.8603L85.8602 85.9391C93.3106 83.1942 97.4644 82.4099 103.896 82.4099C114.181 82.4099 123.543 88.3049 127.929 97.5437L163.638 175.236C152.656 184.408 139.443 190.893 124.959 193.708Z" fill="#F7EEE0"/>
<path fill-rule="evenodd" clip-rule="evenodd" d="M98.5282 188.741C105.367 191.812 112.959 193.521 120.953 193.521H125.168C131.452 192.3 137.496 190.388 143.223 187.865C136.018 152.393 106.226 125.124 69.5142 121.727C67.8429 127.22 66.4629 133.375 66.4629 139.408C66.4629 161.355 79.6198 180.251 98.5282 188.741Z" fill="#F8BA88"/>
<path fill-rule="evenodd" clip-rule="evenodd" d="M191.172 107.378C191.172 131.116 181.272 152.541 165.377 167.752L155.799 146.913L191.133 104.805C191.159 105.659 191.172 106.517 191.172 107.378ZM125.432 199.123H125.102C119.44 200.195 113.597 200.756 107.623 200.756C101.665 200.756 95.8377 200.198 90.1899 199.132C20.7408 187.141 -19.7964 112.475 9.46857 47.1772L10.944 43.885L14.5271 44.3062C18.5324 44.777 22.4495 45.4534 26.2712 46.3225C30.1493 38.1546 35.1407 30.2957 41.2929 22.9394L43.6073 20.1719L46.9412 21.5507C51.2154 23.3185 55.3045 25.315 59.2032 27.5186C73.3217 18.94 89.8955 14 107.623 14C159.194 14 201.001 55.8068 201.001 107.378C201.001 140.794 183.449 170.11 157.062 186.61C154.404 188.296 151.655 189.847 148.825 191.255L148.827 191.267L148.597 191.368C141.494 194.877 133.88 197.481 125.896 199.033L125.432 199.123ZM151.983 178.191C150.224 179.295 148.421 180.336 146.577 181.309C137.465 148.618 109.97 123.597 75.9234 118.089C76.4063 116.732 76.8868 115.428 77.3435 114.193L77.3492 114.177L77.3503 114.174L77.3516 114.171C77.7119 113.196 78.0602 112.254 78.3724 111.382C80.3815 105.769 77.7949 100.504 73.7666 97.547L72.7064 96.7686L79.3328 94.9908L87.7682 90.9739C94.6382 88.4563 98.2003 87.8246 103.896 87.8246C112.287 87.8246 119.905 92.6284 123.477 100.125L157.566 174.294C155.76 175.669 153.898 176.969 151.983 178.191ZM68.6015 33.4827C83.8634 44.3041 95.5756 58.5658 103.323 74.5787V23.938C90.8277 24.5716 79.057 27.9501 68.6015 33.4827ZM94.4419 78.7978C85.7265 60.8253 71.5177 45.2839 52.5258 35.0623L58.4709 59.3497C68.4264 65.407 77.2186 72.9768 84.6205 81.6592C88.4052 80.2806 91.4657 79.3676 94.4419 78.7978ZM75.267 85.9047C62.0512 71.2736 44.3494 60.4074 23.5727 55.7921L63.2527 125.87C64.6648 120.138 66.5836 114.949 68.0265 111.048L68.1243 110.784C68.4919 109.789 68.8242 108.891 69.1181 108.07C69.2755 107.63 69.2568 107.261 69.1203 106.894C68.9683 106.485 68.6155 105.959 67.9498 105.47L50.3901 92.579L75.267 85.9047ZM86.5734 188.385C73.2096 179.033 63.8967 164.34 61.7911 147.415H26.8548C40.3705 167.388 61.1461 182.576 86.5734 188.385ZM132.369 95.9359C128.526 87.8429 121.475 81.9236 113.152 79.3777V24.0093C130.462 25.1402 146.333 31.5426 159.177 41.6267L136.298 104.484L132.382 95.9635L132.369 95.9359ZM151.258 137.033L142.135 117.184L167.072 48.6733C178.393 60.1374 186.423 74.8598 189.628 91.3073L151.258 137.033ZM42.8991 37.0751L46.8513 53.2211C43.3177 51.6256 39.6686 50.2083 35.9118 48.9833C37.9308 44.9153 40.2575 40.9361 42.8991 37.0751ZM37.024 99.4968L58.5908 137.585L20.9909 137.585C14.8719 125.857 11.0633 112.908 9.99579 99.4968H37.024ZM31.4583 89.6675L14.855 60.3449C11.5775 70.076 9.91479 79.943 9.709 89.6675H31.4583ZM73.1126 127.602C72.0779 131.688 71.3775 135.88 71.3775 139.908C71.3775 159.835 83.32 177.025 100.541 184.757C106.759 187.549 113.666 189.106 120.953 189.106H124.687C129.094 188.223 133.375 186.979 137.5 185.405C129.724 155.26 104.418 132.154 73.1126 127.602ZM97.1794 111.783C100.572 111.783 103.323 109.033 103.323 105.64C103.323 102.247 100.572 99.4968 97.1794 99.4968C93.7866 99.4968 91.0361 102.247 91.0361 105.64C91.0361 109.033 93.7866 111.783 97.1794 111.783Z" fill="#243B4A"/>
</g>
<defs>
<clipPath id="clip0_856_1495">
<rect width="215" height="215" fill="white"/>
</clipPath>
</defs>
</svg>
